<?xml version="1.0" standalone="no"?>
<!DOCTYPE svg PUBLIC "-//W3C//DTD SVG 20010904//EN"
 "http://www.w3.org/TR/2001/REC-SVG-20010904/DTD/svg10.dtd">
<svg version="1.0" xmlns="http://www.w3.org/2000/svg"
 width="700.000000pt" height="700.000000pt" viewBox="0 0 700.000000 700.000000"
 preserveAspectRatio="xMidYMid meet">
<metadata>
Created by potrace 1.14, written by Peter Selinger 2001-2017
</metadata>
<g transform="translate(0.000000,700.000000) scale(0.100000,-0.100000)"
fill="#000000" stroke="none">
<path d="M5711 6518 c-40 -15 -471 -264 -671 -387 -8 -5 -128 -77 -267 -160
-271 -163 -313 -197 -362 -301 -25 -54 -26 -59 -31 -346 l-5 -292 -56 -53
c-85 -81 -398 -380 -518 -496 l-106 -103 -49 53 c-27 28 -70 75 -95 102 -162
178 -242 265 -284 309 l-48 51 8 105 c32 477 -31 808 -203 1067 -48 73 -195
233 -214 233 -4 0 -20 11 -36 25 -34 30 -207 116 -279 139 -151 48 -252 61
-455 60 -183 0 -248 -6 -394 -35 -184 -36 -240 -67 -290 -159 -57 -104 -32
-229 63 -319 26 -25 130 -125 230 -221 l183 -174 -7 -46 c-9 -71 -68 -180
-130 -242 -57 -58 -150 -111 -221 -126 l-41 -9 -120 116 c-424 409 -411 399
-509 406 -123 10 -245 -78 -268 -192 -22 -107 -30 -223 -30 -408 0 -185 6
-251 39 -435 35 -197 145 -444 254 -570 181 -210 375 -317 666 -367 56 -10
380 -11 435 -2 30 5 73 11 95 14 22 3 53 8 68 11 23 5 34 -1 68 -38 23 -23 99
-103 171 -176 71 -74 128 -135 126 -138 -2 -2 -388 -390 -859 -861 -643 -645
-867 -876 -902 -930 -101 -152 -147 -291 -152 -458 -5 -177 36 -318 131 -443
242 -320 714 -353 1077 -74 33 24 455 441 939 925 l880 880 52 -54 c29 -30 80
-88 114 -130 58 -71 62 -79 57 -115 -17 -135 -24 -387 -13 -509 46 -506 247
-838 608 -1007 208 -98 450 -132 747 -105 119 10 330 55 388 81 123 56 182
189 140 316 -19 57 -61 103 -275 300 -63 58 -136 124 -161 148 -50 46 -52 56
-28 146 41 151 196 292 330 299 l46 2 198 -194 c109 -106 216 -206 238 -222
113 -82 284 -52 362 64 23 34 49 111 60 177 3 19 10 60 15 90 5 30 12 72 15
93 3 20 8 54 11 75 13 80 11 381 -2 469 -35 223 -96 378 -203 513 -125 156
-346 290 -541 326 -14 3 -36 7 -50 9 -155 29 -426 27 -603 -4 -70 -12 -153
-29 -185 -37 l-57 -15 -60 64 c-79 84 -282 306 -388 422 l-36 40 88 85 c49 47
167 160 262 251 96 92 224 215 284 273 l110 106 270 -4 c159 -2 291 0 320 6
93 19 177 71 239 148 16 20 336 662 513 1030 82 170 93 205 88 294 -6 135 -38
184 -277 427 -195 199 -230 221 -368 225 -66 2 -97 -2 -139 -18z m-3529 -432
c196 -17 377 -113 474 -251 49 -70 104 -205 119 -290 2 -16 8 -41 11 -55 14
-53 12 -415 -2 -525 -20 -150 -8 -223 44 -281 73 -82 288 -320 292 -324 3 -3
50 -54 105 -115 55 -60 110 -120 122 -132 13 -12 23 -27 23 -33 0 -11 -67 -80
-78 -80 -2 0 -34 29 -70 65 -36 36 -68 65 -71 65 -3 0 -96 -90 -205 -200 -110
-110 -203 -200 -206 -200 -4 0 -76 73 -161 161 -239 251 -281 291 -328 312
-55 24 -123 25 -216 3 -181 -43 -410 -52 -555 -21 -322 68 -502 335 -536 795
l-6 85 69 -67 c162 -159 210 -200 252 -220 107 -49 359 -11 529 79 298 158
485 473 478 807 -3 133 -13 152 -171 303 -119 115 -124 122 -98 125 30 4 95 1
185 -6z m3868 -231 c0 -2 -97 -201 -216 -442 -118 -241 -229 -468 -247 -505
l-32 -67 -295 2 c-379 2 -368 5 -575 -194 -55 -53 -125 -121 -156 -150 -65
-62 -412 -394 -474 -454 -22 -22 -122 -117 -221 -212 -98 -94 -182 -174 -186
-178 -4 -4 -16 2 -27 12 l-21 20 97 93 c98 93 455 434 523 500 20 19 126 121
235 225 109 105 218 210 242 235 47 48 95 133 109 190 4 19 8 151 8 293 1 246
2 260 21 274 11 8 164 100 340 205 176 105 394 235 485 290 l165 98 113 -115
c61 -64 112 -118 112 -120z m-3536 -3814 c-977 -975 -1064 -1060 -1129 -1093
-153 -79 -299 -69 -382 25 -68 78 -71 215 -8 345 37 75 59 99 1099 1139 l1061
1063 209 -211 210 -210 -1060 -1058z m1696 1128 c41 -45 82 -90 90 -98 9 -9
65 -70 125 -136 148 -162 181 -192 233 -210 66 -22 107 -19 254 19 122 32 197
46 318 61 49 6 237 7 285 1 198 -23 365 -123 428 -258 63 -134 79 -221 77
-413 -2 -147 -2 -145 -11 -145 -4 0 -56 50 -115 110 -75 76 -126 119 -164 138
-51 25 -63 27 -175 26 -137 -2 -249 -29 -367 -89 -250 -127 -424 -372 -463
-650 -7 -49 -6 -185 1 -234 10 -62 33 -93 157 -214 l122 -118 -110 2 c-301 7
-496 110 -605 321 -40 76 -82 213 -95 314 -11 75 -13 350 -4 434 5 41 11 100
15 130 10 91 6 137 -17 187 -24 53 -159 225 -281 357 -26 28 -48 54 -48 59 0
4 74 81 165 171 l165 164 -121 121 -121 120 29 27 28 26 65 -70 c36 -38 99
-107 140 -153z"/>
</g>
</svg>
